<?xml version="1.0" standalone="no"?>
<!DOCTYPE svg PUBLIC "-//W3C//DTD SVG 20010904//EN"
 "http://www.w3.org/TR/2001/REC-SVG-20010904/DTD/svg10.dtd">
<svg version="1.0" xmlns="http://www.w3.org/2000/svg"
 width="512.000000pt" height="512.000000pt" viewBox="0 0 512.000000 512.000000"
 preserveAspectRatio="xMidYMid meet">

<g transform="translate(0.000000,512.000000) scale(0.100000,-0.100000)"
fill="#000000" stroke="none">
<path d="M2420 5033 c-103 -68 -154 -155 -208 -352 -7 -22 -19 -26 -172 -56
-556 -110 -896 -245 -1174 -469 -98 -79 -187 -166 -180 -177 3 -5 -10 -31 -29
-57 -175 -242 -341 -643 -416 -1004 -51 -249 -65 -380 -65 -643 -1 -315 25
-492 106 -725 160 -455 448 -824 857 -1097 189 -125 541 -273 774 -324 l109
-24 -4 -52 c-3 -45 0 -53 15 -53 13 0 17 9 17 43 0 24 2 46 5 49 3 3 38 -1 78
-9 146 -28 372 -46 572 -46 189 1 449 21 540 43 78 18 85 16 85 -35 0 -36 3
-45 18 -45 14 0 16 8 14 50 -4 47 -3 49 25 55 277 61 537 176 741 327 319 236
482 453 671 895 79 186 115 303 156 507 50 254 60 352 59 631 0 440 -52 681
-224 1030 -91 187 -150 278 -252 395 -256 292 -630 553 -979 683 -117 44 -308
93 -426 110 l-88 13 -45 84 c-54 102 -151 205 -229 243 -51 25 -64 27 -191 27
-109 0 -140 -3 -160 -17z m330 -51 c181 -87 301 -315 351 -667 6 -44 12 -164
13 -268 2 -186 13 -239 29 -135 10 70 0 317 -19 443 -8 55 -25 143 -38 195
-13 52 -23 96 -22 97 4 5 190 -31 287 -56 293 -77 565 -215 834 -426 272 -213
425 -391 555 -645 154 -303 216 -525 239 -861 22 -313 -5 -620 -84 -946 -58
-242 -211 -591 -352 -803 -173 -259 -469 -502 -778 -638 -96 -42 -319 -111
-377 -116 -19 -2 -40 -6 -47 -10 -20 -13 -238 -44 -380 -55 -501 -40 -1023 37
-1434 211 -243 103 -395 194 -578 347 -151 126 -287 275 -388 427 -319 478
-419 978 -325 1624 48 327 135 613 269 885 136 275 235 404 410 536 50 37 107
84 129 104 83 78 403 210 688 284 158 41 459 102 469 95 5 -3 9 -32 9 -64 0
-91 24 -185 110 -437 43 -128 76 -233 73 -233 -3 0 -21 14 -40 30 -18 17 -42
30 -51 30 -28 0 -63 -30 -79 -69 -35 -82 -34 -253 1 -303 24 -33 29 -2 11 68
-13 52 -14 78 -6 129 14 91 29 119 67 123 27 3 38 -4 73 -45 22 -26 53 -76 68
-110 15 -35 34 -63 41 -63 10 0 13 8 9 23 -11 51 -70 235 -137 427 -87 248
-110 346 -110 465 0 150 49 281 138 368 66 65 105 78 217 74 77 -3 100 -8 155
-35z"/>
<path d="M3243 2784 c-7 -18 11 -39 26 -30 17 11 13 46 -4 46 -9 0 -18 -7 -22
-16z"/>
<path d="M2722 2688 c-13 -13 -16 -58 -4 -58 14 0 32 23 32 41 0 23 -14 31
-28 17z"/>
<path d="M3870 1934 c-6 -14 -10 -30 -10 -35 0 -22 -75 -195 -116 -268 -124
-221 -333 -440 -501 -525 -330 -167 -640 -116 -923 150 -136 128 -327 382
-346 461 -7 26 -22 30 -30 9 -6 -15 51 -137 89 -190 109 -156 295 -353 397
-421 233 -154 434 -189 668 -115 98 31 220 96 299 159 142 114 305 315 395
487 45 86 108 255 108 289 0 32 -18 32 -30 -1z"/>
</g>
</svg>
