<?xml version="1.0" standalone="no"?>
<!DOCTYPE svg PUBLIC "-//W3C//DTD SVG 20010904//EN"
 "http://www.w3.org/TR/2001/REC-SVG-20010904/DTD/svg10.dtd">
<svg version="1.0" xmlns="http://www.w3.org/2000/svg"
 width="71.000000pt" height="71.000000pt" viewBox="0 0 71.000000 71.000000"
 preserveAspectRatio="xMidYMid meet">

<g transform="translate(0.000000,71.000000) scale(0.100000,-0.100000)"
fill="#000000" stroke="none">
<path d="M259 676 c-9 -18 -7 -30 5 -55 17 -31 16 -31 -11 -41 -72 -27 -87
-36 -137 -91 -68 -73 -91 -135 -83 -225 8 -106 65 -181 177 -233 44 -20 75
-26 153 -29 89 -4 101 -2 152 23 144 70 214 265 143 401 -15 28 -42 64 -60 79
-34 29 -143 85 -165 85 -7 0 -20 12 -30 28 -35 57 -66 82 -100 82 -25 0 -36
-6 -44 -24z m93 -13 c30 -31 48 -72 48 -109 0 -13 5 -24 11 -24 7 0 9 10 5 26
-6 23 -5 25 16 19 51 -16 112 -46 148 -75 90 -71 117 -211 63 -320 -61 -122
-154 -177 -287 -167 -299 20 -417 300 -207 489 49 44 133 80 149 63 4 -4 1
-10 -5 -12 -7 -3 -12 -14 -12 -26 1 -17 2 -18 6 -4 5 20 14 22 31 5 21 -21 13
3 -22 66 -26 46 -32 66 -25 79 15 25 52 21 81 -10z"/>
<path d="M199 424 c-29 -31 -32 -88 -6 -127 14 -22 25 -27 57 -27 73 0 103 83
56 155 -23 35 -74 34 -107 -1z"/>
<path d="M425 418 c-22 -26 -26 -39 -22 -71 7 -51 32 -77 72 -77 53 0 78 28
77 84 -2 65 -23 96 -66 96 -26 0 -41 -8 -61 -32z"/>
<path d="M180 201 c0 -11 12 -33 26 -50 34 -41 92 -44 131 -5 l25 25 27 -25
c40 -38 84 -35 127 8 19 19 34 41 34 50 0 26 -14 18 -31 -17 -30 -61 -105 -63
-133 -2 -17 36 -36 47 -36 21 0 -30 -44 -67 -79 -68 -33 -1 -70 30 -71 59 0
21 -20 25 -20 4z"/>
</g>
</svg>
